<svg width="412" height="412" viewBox="0 0 412 412" fill="none" xmlns="http://www.w3.org/2000/svg">
<rect width="412" height="412" fill="white"/>
<circle cx="206" cy="206" r="117.5" fill="white" stroke="black" stroke-width="5"/>
<path d="M166.171 159.4H174.139C176.859 159.4 178.843 160.04 180.091 161.32C181.339 162.568 181.963 164.504 181.963 167.128V168.472C181.963 170.2 181.675 171.608 181.099 172.696C180.555 173.784 179.707 174.568 178.555 175.048V175.144C181.179 176.04 182.491 178.376 182.491 182.152V185.032C182.491 187.624 181.803 189.608 180.427 190.984C179.083 192.328 177.099 193 174.475 193H166.171V159.4ZM173.515 173.08C174.571 173.08 175.355 172.808 175.867 172.264C176.411 171.72 176.683 170.808 176.683 169.528V167.656C176.683 166.44 176.459 165.56 176.011 165.016C175.595 164.472 174.923 164.2 173.995 164.2H171.451V173.08H173.515ZM174.475 188.2C175.403 188.2 176.091 187.96 176.539 187.48C176.987 186.968 177.211 186.104 177.211 184.888V181.96C177.211 180.424 176.939 179.368 176.395 178.792C175.883 178.184 175.019 177.88 173.803 177.88H171.451V188.2H174.475ZM185.577 159.4H193.401C196.121 159.4 198.105 160.04 199.353 161.32C200.601 162.568 201.225 164.504 201.225 167.128V169.192C201.225 172.68 200.073 174.888 197.769 175.816V175.912C199.049 176.296 199.945 177.08 200.457 178.264C201.001 179.448 201.273 181.032 201.273 183.016V188.92C201.273 189.88 201.305 190.664 201.369 191.272C201.433 191.848 201.593 192.424 201.849 193H196.473C196.281 192.456 196.153 191.944 196.089 191.464C196.025 190.984 195.993 190.12 195.993 188.872V182.728C195.993 181.192 195.737 180.12 195.225 179.512C194.745 178.904 193.897 178.6 192.681 178.6H190.857V193H185.577V159.4ZM192.777 173.8C193.833 173.8 194.617 173.528 195.129 172.984C195.673 172.44 195.945 171.528 195.945 170.248V167.656C195.945 166.44 195.721 165.56 195.273 165.016C194.857 164.472 194.185 164.2 193.257 164.2H190.857V173.8H192.777ZM209.017 159.4H216.169L221.641 193H216.361L215.401 186.328V186.424H209.401L208.441 193H203.545L209.017 159.4ZM214.777 181.864L212.425 165.256H212.329L210.025 181.864H214.777ZM224.202 159.4H229.482V173.56L236.202 159.4H241.482L235.194 171.736L241.578 193H236.058L231.594 178.024L229.482 182.296V193H224.202V159.4ZM149.741 217.4H157.565C160.285 217.4 162.269 218.04 163.517 219.32C164.765 220.568 165.389 222.504 165.389 225.128V227.192C165.389 230.68 164.237 232.888 161.933 233.816V233.912C163.213 234.296 164.109 235.08 164.621 236.264C165.165 237.448 165.437 239.032 165.437 241.016V246.92C165.437 247.88 165.469 248.664 165.533 249.272C165.597 249.848 165.757 250.424 166.013 251H160.637C160.445 250.456 160.317 249.944 160.253 249.464C160.189 248.984 160.157 248.12 160.157 246.872V240.728C160.157 239.192 159.901 238.12 159.389 237.512C158.909 236.904 158.061 236.6 156.845 236.6H155.021V251H149.741V217.4ZM156.941 231.8C157.997 231.8 158.781 231.528 159.293 230.984C159.837 230.44 160.109 229.528 160.109 228.248V225.656C160.109 224.44 159.885 223.56 159.437 223.016C159.021 222.472 158.349 222.2 157.421 222.2H155.021V231.8H156.941ZM169.101 217.4H183.501V222.2H174.381V231.08H181.629V235.88H174.381V246.2H183.501V251H169.101V217.4ZM186.538 217.4H191.818V231.56L198.538 217.4H203.818L197.53 229.736L203.914 251H198.394L193.93 236.024L191.818 240.296V251H186.538V217.4ZM206.413 217.4H211.693V246.2H220.381V251H206.413V217.4ZM227.181 217.4H234.333L239.805 251H234.525L233.565 244.328V244.424H227.565L226.605 251H221.709L227.181 217.4ZM232.941 239.864L230.589 223.256H230.493L228.189 239.864H232.941ZM242.366 217.4H249.902L253.262 241.448H253.358L256.718 217.4H264.254V251H259.262V225.56H259.166L255.326 251H250.91L247.07 225.56H246.974V251H242.366V217.4Z" fill="black"/>
</svg>
