<svg width="247" height="93" viewBox="0 0 247 93" fill="none" xmlns="http://www.w3.org/2000/svg">
<path d="M11.365 18.3H21.011L25.47 67.258H25.652L30.384 18.3H41.304L46.036 67.258H46.218L50.677 18.3H59.322L52.861 82H40.394L35.844 39.048H35.662L31.112 82H17.826L11.365 18.3ZM70.8762 18.3H84.4352L94.8092 82H84.7992L82.9792 69.351V69.533H71.6042L69.7842 82H60.5022L70.8762 18.3ZM81.7962 60.888L77.3372 29.402H77.1552L72.7872 60.888H81.7962ZM112.412 82.91C107.559 82.91 103.888 81.545 101.401 78.815C98.9136 76.0243 97.67 72.0507 97.67 66.894V63.254H107.134V67.622C107.134 71.7473 108.863 73.81 112.321 73.81C114.02 73.81 115.294 73.3247 116.143 72.354C117.053 71.3227 117.508 69.6847 117.508 67.44C117.508 64.7707 116.901 62.435 115.688 60.433C114.475 58.3703 112.23 55.9133 108.954 53.062C104.829 49.422 101.947 46.146 100.309 43.234C98.671 40.2613 97.852 36.9247 97.852 33.224C97.852 28.1887 99.126 24.306 101.674 21.576C104.222 18.7853 107.923 17.39 112.776 17.39C117.569 17.39 121.178 18.7853 123.605 21.576C126.092 24.306 127.336 28.2493 127.336 33.406V36.045H117.872V32.769C117.872 30.585 117.447 29.0077 116.598 28.037C115.749 27.0057 114.505 26.49 112.867 26.49C109.53 26.49 107.862 28.5223 107.862 32.587C107.862 34.8923 108.469 37.046 109.682 39.048C110.956 41.05 113.231 43.4767 116.507 46.328C120.693 49.968 123.575 53.2743 125.152 56.247C126.729 59.2197 127.518 62.708 127.518 66.712C127.518 71.9293 126.214 75.9333 123.605 78.724C121.057 81.5147 117.326 82.91 112.412 82.91ZM133.257 18.3H143.267V44.235H154.005V18.3H164.015V82H154.005V53.335H143.267V82H133.257V18.3ZM171.47 18.3H198.77V27.4H181.48V44.235H195.221V53.335H181.48V72.9H198.77V82H171.47V18.3ZM204.529 18.3H219.817C224.792 18.3 228.523 19.6347 231.01 22.304C233.497 24.9733 234.741 28.8863 234.741 34.043V66.257C234.741 71.4137 233.497 75.3267 231.01 77.996C228.523 80.6653 224.792 82 219.817 82H204.529V18.3ZM219.635 72.9C221.273 72.9 222.517 72.4147 223.366 71.444C224.276 70.4733 224.731 68.896 224.731 66.712V33.588C224.731 31.404 224.276 29.8267 223.366 28.856C222.517 27.8853 221.273 27.4 219.635 27.4H214.539V72.9H219.635Z" fill="black"/>
<line x1="8.74228e-08" y1="7" x2="247" y2="7.00002" stroke="black" stroke-width="2"/>
<line x1="8.74228e-08" y1="92" x2="247" y2="92" stroke="black" stroke-width="2"/>
</svg>
